<?xml version="1.0" encoding="utf-8"?>
<!-- Generator: Adobe Illustrator 25.2.1, SVG Export Plug-In . SVG Version: 6.00 Build 0)  -->
<svg version="1.1" id="Layer_1" xmlns="http://www.w3.org/2000/svg" xmlns:xlink="http://www.w3.org/1999/xlink" x="0px" y="0px"
	 viewBox="0 0 612 792" style="enable-background:new 0 0 612 792;" xml:space="preserve">
<style type="text/css">
	.st0{fill:#FFFFFF;}
</style>
<g>
	<path class="st0" d="M491.6,380.8c-51.3-29.6-102-58.5-156.7-90.1c22.8-12.6,41.5-23.1,60.2-33.3c5.1-2.7,9.9,1,14.3,3.7
		c45.9,26.2,92.1,51,137,78.5c85.3,52.7,79.9,178.8-8.5,225.8c-4.8,2.7-9.5,6.1-16,4.8c-6.1-5.4-4.1-12.6-4.1-19
		c-0.3-42.5-1.4-85,0.3-127.5C518.8,403.2,512.3,389.3,491.6,380.8L491.6,380.8z M56.4,574.2c-12.6-26.5-19-52.7-12.9-80.6
		c7.8-2.7,12.2,2,17,4.8c39.4,22.4,79.2,44.2,118,67.7c15,9.2,27.5,9.2,42.5,0.3c46.9-27.5,94.2-54.1,141.4-80.9
		c5.8-3.1,10.9-8.5,20.7-6.5c0,20.4,0.3,41.1,0,61.9c0,6.5-6.1,9.2-10.9,11.9c-43.2,24.8-86,50-129.9,74.1
		C174.4,664.3,98.5,642.9,56.4,574.2L56.4,574.2z"/>
	<path class="st0" d="M58.1,447.4C13.2,412.7-5.2,358,9.8,306c12.2-42.8,49.6-81.6,81.6-84.3c4.4,5.4,2.7,11.9,2.7,18
		c0.3,44.9,0.7,89.4,0,134.3c-0.3,16.3,5.4,26.2,19.7,34c47.3,26.2,93.8,53,140.4,79.6c6.1,3.4,13.6,5.8,18.7,15
		c-18,12.2-36.7,23.1-56.4,32c-4.4,2-8.8-1-12.9-3.4C155,503.5,106.7,475.6,58.1,447.4L58.1,447.4z M305.9,274.7
		c-25.5,14.6-51,28.9-76.8,43.5c0-25.5-0.3-46.6,0.3-67.7c0-4.8,5.1-7.1,8.8-9.5c47.3-26.9,93.8-55.4,142.1-79.9
		c88.7-45.2,194.5,25.2,189.7,124.4c-0.3,4.4,0,9.2-3.1,12.9c-7.8,2.7-12.9-3.1-18.4-6.1c-38.4-21.8-76.8-43.5-114.9-66
		c-14.6-8.8-27.9-9.2-42.8-0.3C363.4,242.7,334.8,258,305.9,274.7z M427.7,668.7c-55.8,40.5-135.7,39.8-167.3-1.7
		c7.8-9.2,19-13.6,29.2-19.4c34.7-20.4,69.7-40.1,104.7-59.8c12.2-6.8,17.7-16,17.7-29.9c-0.3-55.4-0.3-111.2,0-166.6
		c0-5.8-2-12.6,4.1-19.4c19.4,7.8,37.1,20.1,55.1,30.9c5.1,3.1,4.1,8.8,4.1,13.9c0,53.4,1,106.4-0.3,159.8
		C473.9,613.7,456.6,643.9,427.7,668.7L427.7,668.7z"/>
	<path class="st0" d="M156.3,156c50.3-80.9,157.8-74.5,194.5-31.3c-8.2,9.9-20.1,13.9-30.6,20.1c-33.7,19.7-67.3,39.8-101.7,58.1
		c-13.9,7.5-19.4,17-19,32.3c0.3,54.4,0.3,108.8,0,162.9c0,6.5,1.7,13.6-3.7,22.4c-19.4-9.9-38.4-20.1-56.1-32.6
		c-4.8-3.4-3.4-9.2-3.4-14.3c0-52-0.3-104,0.3-156.1C137,196.1,144.8,176.1,156.3,156L156.3,156z"/>
	<path class="st0" d="M309.3,482.1c-28.9-8.2-52-25.8-76.8-40.1c-5.1-2.7-4.4-8.8-4.4-13.9c0-21.1,0.3-41.8-0.3-62.9
		c-0.3-9.9,3.7-15.6,11.9-20.4c18.4-9.9,36.7-20.4,54.4-30.9c7.8-4.4,14.3-4.8,22.1-0.3c18.4,10.9,37.1,21.8,56.1,32
		c8.2,4.4,10.5,10.5,10.5,19.4c-0.3,21.1-0.3,41.8,0,62.9c0.3,9.9-4.1,15.6-12.2,20.1C350.8,458.6,330.8,470.5,309.3,482.1
		L309.3,482.1z"/>
</g>
</svg>
